<svg version="1.1" id="Layer_1" xmlns="http://www.w3.org/2000/svg" xmlns:xlink="http://www.w3.org/1999/xlink" x="0px" y="0px"
	 width="100%" viewBox="0 0 600 428" enable-background="new 0 0 600 428" xml:space="preserve">
<path fill="#FEFEFE" opacity="1.000000" stroke="none" 
	d="
M1.000000,371.000000 
	C1.000000,247.697479 1.000000,124.394951 1.000000,1.046214 
	C200.919220,1.046214 400.838470,1.046214 600.878845,1.046214 
	C600.878845,143.550171 600.878845,286.100494 600.878845,429.000000 
	C599.131226,429.000000 597.240967,429.000000 595.350708,429.000000 
	C398.733185,429.000000 202.115646,429.006531 5.498214,428.858490 
	C4.209398,428.857513 0.871630,431.327545 1.460859,426.520081 
	C4.848215,426.040161 7.774712,426.040161 11.119796,426.040161 
	C11.119796,423.694550 11.119730,421.896790 11.119807,420.098999 
	C11.120375,406.776001 11.255861,393.450806 11.041726,380.131256 
	C10.974986,375.979919 12.787807,373.859039 16.475267,373.081177 
	C19.060324,372.535858 21.742231,372.110748 24.369516,372.166687 
	C32.987473,372.350006 36.758705,376.207520 36.854061,384.886810 
	C36.958340,394.378296 36.878101,403.871826 36.878235,413.364471 
	C36.878296,417.475922 36.878246,421.587372 36.878246,425.844299 
	C40.574291,425.844299 43.611446,425.844299 47.029224,425.844299 
	C47.029224,411.171539 47.101578,396.879852 47.002087,382.589417 
	C46.942406,374.016724 42.826817,368.822998 34.376049,367.079315 
	C22.877039,364.706604 11.650156,365.652283 1.000000,371.000000 
M340.927551,240.975113 
	C340.453766,247.194504 340.920837,253.665146 339.339050,259.588654 
	C333.329559,282.093475 321.048706,301.144989 305.373840,318.147217 
	C300.179871,323.781067 294.960846,329.398254 289.981964,335.218719 
	C288.949158,336.426117 288.135590,338.849487 288.674042,340.072906 
	C289.176697,341.214905 291.595093,342.030914 293.198608,342.080933 
	C299.857483,342.288635 306.528900,342.054382 313.192017,342.179504 
	C317.102142,342.252930 319.404968,340.479218 320.693268,336.919495 
	C322.388641,332.234924 324.038818,327.523193 325.995880,322.946014 
	C334.496582,303.064911 344.770691,284.391113 361.278778,269.740723 
	C364.197235,267.150665 366.397675,263.319611 367.873047,259.638123 
	C370.005676,254.316818 371.173615,248.608887 373.068939,241.957626 
	C374.773529,244.827591 376.042664,246.699326 377.049072,248.703033 
	C382.531403,259.617981 383.781586,271.226471 382.517609,283.217407 
	C380.691803,300.537720 374.535309,316.419220 366.409973,331.648376 
	C365.551941,333.256592 364.542908,334.870209 364.121826,336.606873 
	C363.345856,339.807068 363.948883,342.309509 368.140137,342.141327 
	C370.802155,342.034515 373.473145,342.174103 376.138153,342.114960 
	C390.129456,341.804413 388.273407,344.789917 392.543274,329.499084 
	C396.832245,314.139832 395.141357,315.959015 410.047150,315.844330 
	C414.370667,315.811035 416.353394,314.554657 416.308014,309.820068 
	C416.009338,278.660553 416.291626,247.491013 415.610840,216.341644 
	C415.288025,201.570267 414.123840,186.695724 411.756653,172.125305 
	C409.464722,158.017960 400.052063,149.182251 385.894806,146.401917 
	C380.407928,145.324387 374.600372,145.080673 369.011841,145.479385 
	C355.562256,146.438904 342.158875,148.035156 328.731323,149.316360 
	C283.082855,153.671814 239.625366,145.221146 197.891586,126.817566 
	C196.378433,126.150299 195.051453,125.060814 192.971191,123.747215 
	C207.069336,115.417679 221.806763,109.167068 226.441757,92.280441 
	C223.923462,92.840530 221.875336,93.997437 220.008133,95.395897 
	C206.664398,105.389778 191.823944,109.374336 175.333023,106.413315 
	C154.734039,102.714668 141.868820,89.849747 133.967758,71.171684 
	C133.139404,69.213448 131.947983,67.408813 130.924988,65.532913 
	C130.429031,65.653557 129.933075,65.774193 129.437103,65.894836 
	C129.161362,68.097801 128.628098,70.303604 128.652267,72.503281 
	C128.793610,85.362442 132.263947,97.132668 140.575012,107.185204 
	C143.721985,110.991570 144.651398,114.412437 140.673752,118.492928 
	C136.613037,122.658623 133.116013,127.270638 132.943527,133.685410 
	C132.891846,135.607376 131.301208,137.622574 130.069794,139.348282 
	C127.944778,142.326279 125.247643,144.929977 123.376892,148.043076 
	C122.205055,149.993088 121.209381,152.793579 121.683769,154.856186 
	C123.501251,162.758316 132.909225,169.826172 141.139908,169.808395 
	C147.420456,169.794830 152.648209,172.023132 156.373444,176.936050 
	C158.962250,180.350220 160.792282,184.335327 163.009064,188.036774 
	C170.425720,200.420807 177.925095,212.755951 185.245178,225.196671 
	C186.821411,227.875565 188.319244,230.808167 188.929871,233.811615 
	C191.530807,246.604813 190.226440,259.326965 187.400909,271.934113 
	C182.767578,292.607513 173.482437,311.342041 163.239258,329.678040 
	C161.952805,331.980865 160.696426,334.381622 159.965561,336.893921 
	C158.977539,340.290283 160.164551,342.292603 164.184067,342.165588 
	C169.844345,341.986725 175.514542,342.125824 181.180496,342.122589 
	C188.402740,342.118500 189.267166,341.071564 190.107651,333.986237 
	C193.225143,307.705688 199.929764,282.418060 211.895370,258.704346 
	C213.794342,254.940903 216.577408,251.623566 219.073227,247.919647 
	C235.434464,258.293457 245.474365,272.275513 249.927719,290.178650 
	C253.702225,305.352753 252.834961,320.558167 249.390564,335.699188 
	C248.229111,340.804779 249.226517,342.093567 254.370712,342.157562 
	C260.035736,342.227997 265.703583,342.243317 271.367981,342.150482 
	C277.422791,342.051239 279.124176,340.435883 278.157593,334.604553 
	C276.910126,327.078674 275.343628,319.573486 273.362701,312.207794 
	C268.573547,294.400391 263.037140,276.784729 258.612335,258.891388 
	C254.729843,243.190994 265.477814,229.730606 281.669312,230.217438 
	C289.471283,230.451996 297.324463,232.794861 304.903137,235.033859 
	C308.682617,236.150452 311.230316,236.342117 314.709839,234.016861 
	C325.678864,226.686539 335.823517,229.321564 340.927551,240.975113 
M177.810410,93.886154 
	C178.804489,93.993149 179.799820,94.089775 180.792480,94.208672 
	C201.277985,96.662407 220.425873,85.500549 228.076752,66.642738 
	C235.756348,47.714146 229.755661,26.175217 213.387100,13.915569 
	C197.140503,1.747274 174.575943,1.813518 158.633118,14.555984 
	C144.356522,25.966698 138.597412,41.170956 142.385529,58.959812 
	C146.351273,77.582802 158.529633,89.014763 177.810410,93.886154 
M443.126160,354.571289 
	C443.125580,353.406799 442.985535,352.222260 443.149780,351.081512 
	C443.716675,347.143982 442.167755,345.870331 438.173035,345.978851 
	C434.479370,346.079132 432.675598,346.744354 432.933838,350.976898 
	C433.292633,356.857605 433.024078,362.776581 433.024078,368.829285 
	C415.485352,363.199890 402.724792,368.390594 396.513458,383.496979 
	C392.605194,393.002197 392.837799,402.668274 396.456909,412.186462 
	C399.376984,419.866180 405.176208,424.655090 412.994202,426.804810 
	C421.656403,429.186646 430.104889,428.082397 438.311768,424.552643 
	C441.720062,423.086731 443.259583,420.937256 443.219696,416.936859 
	C443.015778,396.477875 443.125946,376.015778 443.126160,354.571289 
M300.497406,401.055786 
	C300.682739,402.707855 300.806458,404.369568 301.063232,406.010468 
	C303.087372,418.946442 311.575836,427.147766 323.757385,427.971436 
	C337.330597,428.889221 347.089111,422.435699 350.500183,409.873322 
	C352.940918,400.884491 352.924408,391.780273 350.093964,382.838684 
	C346.553833,371.655090 338.169098,365.873413 325.950165,365.957397 
	C313.977509,366.039642 305.180298,372.153900 302.270813,383.414764 
	C300.880127,388.797150 300.981873,394.565125 300.497406,401.055786 
M291.666412,418.337219 
	C291.666534,407.181549 291.700684,396.025726 291.657410,384.870209 
	C291.612823,373.376434 287.620422,368.422424 276.274628,366.512939 
	C267.620422,365.056458 259.064056,365.998047 250.643417,368.590271 
	C246.636581,369.823730 245.215637,372.151733 245.263962,376.292938 
	C245.438812,391.276184 245.318558,406.262726 245.350525,421.247955 
	C245.353912,422.835052 245.626160,424.421600 245.776199,426.035553 
	C247.131454,426.142365 247.949005,426.245544 248.768570,426.265320 
	C255.816620,426.435669 255.817596,426.431122 255.818069,419.347748 
	C255.818939,406.194000 255.766434,393.039825 255.883881,379.887115 
	C255.898865,378.208710 256.265350,375.746338 257.377747,374.997955 
	C262.862732,371.307922 269.029388,371.262054 275.058014,373.400360 
	C280.017090,375.159302 281.203552,379.475342 281.196350,384.317017 
	C281.177948,396.637756 281.369629,408.960907 281.168365,421.278046 
	C281.104279,425.199432 282.345795,426.131104 286.221375,426.450409 
	C292.585327,426.974701 291.760864,423.093689 291.666412,418.337219 
M201.161560,423.788055 
	C203.935181,420.139923 207.654755,416.870575 209.296844,412.769409 
	C213.450378,402.395630 213.236145,391.588318 209.405960,381.077423 
	C205.814484,371.221558 197.576782,365.992767 186.484329,365.954956 
	C174.970078,365.915710 166.089096,370.880371 163.228516,381.067230 
	C161.173386,388.385803 160.366165,396.491455 161.053253,404.059814 
	C162.950851,424.962494 181.929932,434.303253 201.161560,423.788055 
M92.357697,426.046326 
	C99.748299,423.089020 103.945892,417.364014 105.967819,409.938141 
	C108.284317,401.430450 108.312637,392.838959 106.029182,384.313385 
	C102.843445,372.418976 94.382446,366.025024 81.967148,365.956329 
	C69.420486,365.886932 60.689434,371.953461 57.689739,383.899628 
	C56.297485,389.444244 55.914268,395.413757 56.111187,401.155121 
	C56.820423,421.833405 71.769989,432.264343 92.357697,426.046326 
M125.753342,411.829895 
	C127.160355,415.559357 128.288605,419.432892 130.106445,422.950012 
	C130.873795,424.434662 132.958344,425.590546 134.685303,426.145599 
	C137.351685,427.002563 138.800156,425.445129 139.741913,422.836121 
	C145.887466,405.810486 152.181625,388.838531 158.389389,371.835236 
	C158.862396,370.539642 159.043793,369.137604 159.345139,367.851624 
	C153.765869,365.964783 150.884811,367.306580 149.293579,372.740448 
	C146.589218,381.975403 143.169739,391.001160 140.041672,400.111725 
	C138.839005,403.614563 137.611450,407.108826 135.936188,411.927338 
	C130.953598,398.046600 126.475578,385.603058 122.021645,373.150879 
	C119.653267,366.529419 116.654655,365.323059 109.184982,368.445404 
	C114.584587,382.661865 119.992012,396.898865 125.753342,411.829895 
M512.045959,420.379425 
	C517.999329,410.488251 515.828186,401.596619 505.846619,395.915527 
	C501.815125,393.620941 497.445557,391.926849 493.364136,389.711945 
	C487.561920,386.563141 485.842743,382.600800 487.981201,378.045166 
	C490.138397,373.449615 495.834747,371.570862 501.311615,373.721222 
	C502.536407,374.202057 503.693970,374.885895 504.821991,375.575256 
	C507.621704,377.286346 510.608368,378.446106 512.399414,374.670441 
	C514.044617,371.202209 511.253693,369.327332 508.580566,368.301056 
	C501.152069,365.449188 493.611298,365.117493 486.343170,368.839111 
	C476.172760,374.046875 474.752716,387.489349 483.699615,394.614807 
	C486.388733,396.756409 489.656311,398.198547 492.735260,399.815674 
	C495.375488,401.202301 498.212067,402.226562 500.804840,403.689301 
	C504.401337,405.718384 506.746338,408.734711 505.814880,413.102936 
	C504.853638,417.610718 501.825623,420.213348 497.273926,421.082458 
	C492.123352,422.065918 487.835938,420.340668 483.861023,417.194489 
	C481.420959,415.263153 478.302429,414.454193 476.415619,417.342987 
	C474.489227,420.292450 476.741730,422.579773 479.315063,424.272949 
	C488.751251,430.481659 503.431732,428.991272 512.045959,420.379425 
M526.628662,345.918427 
	C523.017212,345.443420 523.127014,347.816193 523.130371,350.314545 
	C523.162659,374.308441 523.146606,398.302399 523.163330,422.296356 
	C523.164124,423.421143 523.343445,424.545837 523.463013,425.943909 
	C526.783142,425.943909 529.859070,425.943909 533.175049,425.943909 
	C533.175049,399.262848 533.175049,372.822601 533.175049,345.917755 
	C531.129761,345.917755 529.332031,345.917755 526.628662,345.918427 
M369.973877,381.658905 
	C370.301117,378.353027 368.589050,374.175751 372.866302,372.397217 
	C376.925354,370.709473 380.664093,372.148865 383.903564,374.973419 
	C384.648132,375.622620 385.672913,376.689545 386.346375,376.542908 
	C388.379669,376.100220 391.003754,375.663055 392.038086,374.237396 
	C392.800964,373.185974 391.826508,370.352539 390.873779,368.764435 
	C390.256042,367.734711 388.278473,367.007202 386.919373,367.021454 
	C379.687683,367.097229 372.445251,367.260284 365.234375,367.779785 
	C361.057678,368.080750 359.568451,370.784302 359.618896,375.032776 
	C359.804504,390.677185 359.682770,406.325195 359.708252,421.971802 
	C359.710327,423.250702 359.951050,424.529175 360.084564,425.844360 
	C363.445618,425.844360 366.491791,425.844360 369.973877,425.844360 
	C369.973877,411.179260 369.973877,396.899292 369.973877,381.658905 
M560.450378,379.935944 
	C562.736755,376.188568 565.023071,372.441193 567.381958,368.574982 
	C559.807556,365.555847 557.052734,366.681061 554.093140,372.708679 
	C552.418457,376.119354 550.416260,379.424744 548.161194,382.482239 
	C544.536133,387.397095 540.579407,392.067291 536.407227,397.285553 
	C540.887878,403.673584 546.714905,411.974609 552.534729,420.280670 
	C557.183044,426.914764 559.277039,427.631073 568.861938,425.265503 
	C561.082397,415.001404 553.527466,405.033722 546.256165,395.440247 
	C551.046814,390.246399 555.536133,385.379272 560.450378,379.935944 
M457.118713,367.979828 
	C456.977234,368.788483 456.713470,369.596985 456.712372,370.405823 
	C456.688293,388.016571 456.685211,405.627319 456.715912,423.238068 
	C456.717529,424.165771 457.052887,425.092865 457.183807,425.767303 
	C460.556396,425.767303 463.599640,425.767303 466.939331,425.767303 
	C466.939331,408.041290 466.940491,390.783051 466.938721,373.524811 
	C466.938049,367.056763 466.934845,367.050171 460.297668,367.166992 
	C459.472351,367.181488 458.649048,367.309540 457.118713,367.979828 
M572.825867,351.916077 
	C580.293518,355.501404 587.428833,354.978516 593.752930,349.564423 
	C599.254883,344.854218 601.197571,338.629211 599.533936,331.555573 
	C597.608826,323.370026 590.616150,317.824463 582.269836,317.522644 
	C574.231506,317.231903 566.713257,322.371185 564.191589,329.880554 
	C561.444092,338.062408 564.299011,345.796967 572.825867,351.916077 
M455.667450,351.426941 
	C457.063019,353.262726 458.099609,356.024933 459.931488,356.734802 
	C463.379364,358.070831 466.638184,356.604492 467.737122,352.748230 
	C468.752960,349.183594 467.113190,346.580597 463.580994,345.423920 
	C460.054688,344.269165 457.147430,346.286133 455.667450,351.426941 
z"/>
<path fill="#021B66" opacity="1.000000" stroke="none" 
	d="
M1.000000,371.468658 
	C11.650156,365.652283 22.877039,364.706604 34.376049,367.079315 
	C42.826817,368.822998 46.942406,374.016724 47.002087,382.589417 
	C47.101578,396.879852 47.029224,411.171539 47.029224,425.844299 
	C43.611446,425.844299 40.574291,425.844299 36.878246,425.844299 
	C36.878246,421.587372 36.878296,417.475922 36.878235,413.364471 
	C36.878101,403.871826 36.958340,394.378296 36.854061,384.886810 
	C36.758705,376.207520 32.987473,372.350006 24.369516,372.166687 
	C21.742231,372.110748 19.060324,372.535858 16.475267,373.081177 
	C12.787807,373.859039 10.974986,375.979919 11.041726,380.131256 
	C11.255861,393.450806 11.120375,406.776001 11.119807,420.098999 
	C11.119730,421.896790 11.119796,423.694550 11.119796,426.040161 
	C7.774712,426.040161 4.848215,426.040161 1.460859,426.020081 
	C1.000000,407.979095 1.000000,389.958221 1.000000,371.468658 
z"/>
<path fill="#041D67" opacity="1.000000" stroke="none" 
	d="
M340.825806,240.591858 
	C335.823517,229.321564 325.678864,226.686539 314.709839,234.016861 
	C311.230316,236.342117 308.682617,236.150452 304.903137,235.033859 
	C297.324463,232.794861 289.471283,230.451996 281.669312,230.217438 
	C265.477814,229.730606 254.729843,243.190994 258.612335,258.891388 
	C263.037140,276.784729 268.573547,294.400391 273.362701,312.207794 
	C275.343628,319.573486 276.910126,327.078674 278.157593,334.604553 
	C279.124176,340.435883 277.422791,342.051239 271.367981,342.150482 
	C265.703583,342.243317 260.035736,342.227997 254.370712,342.157562 
	C249.226517,342.093567 248.229111,340.804779 249.390564,335.699188 
	C252.834961,320.558167 253.702225,305.352753 249.927719,290.178650 
	C245.474365,272.275513 235.434464,258.293457 219.073227,247.919647 
	C216.577408,251.623566 213.794342,254.940903 211.895370,258.704346 
	C199.929764,282.418060 193.225143,307.705688 190.107651,333.986237 
	C189.267166,341.071564 188.402740,342.118500 181.180496,342.122589 
	C175.514542,342.125824 169.844345,341.986725 164.184067,342.165588 
	C160.164551,342.292603 158.977539,340.290283 159.965561,336.893921 
	C160.696426,334.381622 161.952805,331.980865 163.239258,329.678040 
	C173.482437,311.342041 182.767578,292.607513 187.400909,271.934113 
	C190.226440,259.326965 191.530807,246.604813 188.929871,233.811615 
	C188.319244,230.808167 186.821411,227.875565 185.245178,225.196671 
	C177.925095,212.755951 170.425720,200.420807 163.009064,188.036774 
	C160.792282,184.335327 158.962250,180.350220 156.373444,176.936050 
	C152.648209,172.023132 147.420456,169.794830 141.139908,169.808395 
	C132.909225,169.826172 123.501251,162.758316 121.683769,154.856186 
	C121.209381,152.793579 122.205055,149.993088 123.376892,148.043076 
	C125.247643,144.929977 127.944778,142.326279 130.069794,139.348282 
	C131.301208,137.622574 132.891846,135.607376 132.943527,133.685410 
	C133.116013,127.270638 136.613037,122.658623 140.673752,118.492928 
	C144.651398,114.412437 143.721985,110.991570 140.575012,107.185204 
	C132.263947,97.132668 128.793610,85.362442 128.652267,72.503281 
	C128.628098,70.303604 129.161362,68.097801 129.437103,65.894836 
	C129.933075,65.774193 130.429031,65.653557 130.924988,65.532913 
	C131.947983,67.408813 133.139404,69.213448 133.967758,71.171684 
	C141.868820,89.849747 154.734039,102.714668 175.333023,106.413315 
	C191.823944,109.374336 206.664398,105.389778 220.008133,95.395897 
	C221.875336,93.997437 223.923462,92.840530 226.441757,92.280441 
	C221.806763,109.167068 207.069336,115.417679 192.971191,123.747215 
	C195.051453,125.060814 196.378433,126.150299 197.891586,126.817566 
	C239.625366,145.221146 283.082855,153.671814 328.731323,149.316360 
	C342.158875,148.035156 355.562256,146.438904 369.011841,145.479385 
	C374.600372,145.080673 380.407928,145.324387 385.894806,146.401917 
	C400.052063,149.182251 409.464722,158.017960 411.756653,172.125305 
	C414.123840,186.695724 415.288025,201.570267 415.610840,216.341644 
	C416.291626,247.491013 416.009338,278.660553 416.308014,309.820068 
	C416.353394,314.554657 414.370667,315.811035 410.047150,315.844330 
	C395.141357,315.959015 396.832245,314.139832 392.543274,329.499084 
	C388.273407,344.789917 390.129456,341.804413 376.138153,342.114960 
	C373.473145,342.174103 370.802155,342.034515 368.140137,342.141327 
	C363.948883,342.309509 363.345856,339.807068 364.121826,336.606873 
	C364.542908,334.870209 365.551941,333.256592 366.409973,331.648376 
	C374.535309,316.419220 380.691803,300.537720 382.517609,283.217407 
	C383.781586,271.226471 382.531403,259.617981 377.049072,248.703033 
	C376.042664,246.699326 374.773529,244.827591 373.068939,241.957626 
	C371.173615,248.608887 370.005676,254.316818 367.873047,259.638123 
	C366.397675,263.319611 364.197235,267.150665 361.278778,269.740723 
	C344.770691,284.391113 334.496582,303.064911 325.995880,322.946014 
	C324.038818,327.523193 322.388641,332.234924 320.693268,336.919495 
	C319.404968,340.479218 317.102142,342.252930 313.192017,342.179504 
	C306.528900,342.054382 299.857483,342.288635 293.198608,342.080933 
	C291.595093,342.030914 289.176697,341.214905 288.674042,340.072906 
	C288.135590,338.849487 288.949158,336.426117 289.981964,335.218719 
	C294.960846,329.398254 300.179871,323.781067 305.373840,318.147217 
	C321.048706,301.144989 333.329559,282.093475 339.339050,259.588654 
	C340.920837,253.665146 340.453766,247.194504 340.825806,240.591858 
M289.865417,215.152176 
	C318.202789,213.578125 346.161530,214.375168 372.056091,228.203583 
	C375.358856,229.967331 377.846985,228.924835 379.484253,225.725952 
	C380.389465,223.957321 381.320892,222.149002 381.851074,220.249847 
	C386.587036,203.285446 388.554199,185.944702 387.858704,168.388443 
	C387.429352,157.549835 379.752197,152.351410 368.900635,154.873291 
	C369.800476,157.876617 370.886169,160.833084 371.563049,163.880386 
	C373.919434,174.488663 368.431396,183.535141 358.221008,186.110962 
	C351.915955,187.701584 348.872406,185.316269 348.128906,178.874954 
	C347.619812,174.464355 346.943542,169.926926 345.374725,165.815292 
	C342.135315,157.325409 340.528442,156.812851 331.732727,159.296066 
	C332.187469,165.602585 333.019623,171.856995 333.008606,178.109940 
	C332.986877,190.453888 328.636078,196.488266 316.474152,197.812180 
	C303.657532,199.207382 290.618652,198.968567 277.689056,198.743439 
	C271.432373,198.634476 267.731720,194.740005 266.965851,188.215118 
	C265.881378,178.976273 265.618958,169.643280 264.774017,160.371567 
	C264.642731,158.930893 263.582916,156.834869 262.427673,156.382675 
	C260.077057,155.462616 257.368225,155.457687 255.723267,155.212326 
	C252.646118,164.053528 250.327744,172.568390 246.737503,180.508118 
	C243.155518,188.429596 236.575577,193.009766 227.411850,193.222992 
	C216.430099,193.478531 213.249466,189.625031 215.918777,178.924606 
	C216.481522,176.668762 217.252625,174.458206 217.703537,172.182358 
	C219.407242,163.583206 221.018631,154.965744 222.677582,146.287003 
	C219.132309,145.005005 216.543594,143.618576 213.815262,143.241028 
	C212.003571,142.990311 209.169128,143.555038 208.199387,144.827209 
	C199.820877,155.818710 192.059784,167.218689 187.425430,180.425186 
	C182.923569,193.254135 185.144089,204.843506 194.488968,214.596619 
	C198.930603,219.232300 204.044479,223.451157 209.479935,226.860718 
	C221.304688,234.278168 233.828247,240.632584 243.517136,251.042969 
	C243.796143,251.342789 244.392410,251.347321 245.225067,251.611465 
	C245.733643,249.616486 246.254410,247.743195 246.686951,245.849777 
	C249.812485,232.168091 258.149139,223.148697 271.446442,219.015030 
	C277.123993,217.250046 283.105042,216.461334 289.865417,215.152176 
M166.253586,176.260666 
	C168.918076,180.889374 171.582550,185.518082 174.859604,191.210938 
	C178.132553,173.457825 186.346130,159.475891 195.663208,146.012695 
	C196.510025,144.789047 197.215500,143.456741 197.886246,142.124374 
	C199.233917,139.447433 198.626083,137.296677 195.956711,135.851105 
	C184.868378,129.846359 173.867752,123.665085 162.597610,118.022629 
	C160.270767,116.857681 155.884888,116.497215 154.253616,117.886330 
	C149.786835,121.690033 144.182693,126.098389 142.897842,131.235107 
	C141.057144,138.594101 137.193253,144.082550 133.202484,149.937561 
	C132.286102,151.282028 131.866669,153.947189 132.588852,155.237671 
	C134.551956,158.745514 137.260666,161.668503 142.035385,161.285583 
	C153.359863,160.377441 161.156464,165.510040 166.253586,176.260666 
M323.434753,183.556946 
	C325.730591,175.514648 325.129486,167.602921 323.014648,160.354797 
	C305.840027,159.759735 289.337769,159.187973 272.420319,158.601822 
	C272.981506,166.745758 273.411804,174.860916 274.153137,182.947540 
	C274.515564,186.900711 275.698944,190.793365 280.725098,190.857239 
	C290.843201,190.985825 300.985443,191.257324 311.074738,190.696487 
	C315.653046,190.441971 320.904083,189.763916 323.434753,183.556946 
M404.028198,267.313843 
	C404.427307,254.353760 405.172943,241.391663 405.097198,228.434357 
	C405.050842,220.503326 403.891815,212.561081 402.899292,204.665756 
	C402.651276,202.692917 401.116180,200.881882 399.564178,197.780624 
	C393.905121,223.895187 393.748993,248.091736 402.426025,273.415649 
	C403.203308,270.808594 403.595032,269.494781 404.028198,267.313843 
M229.891968,152.435547 
	C228.224243,160.909622 226.450623,169.365204 224.964447,177.871002 
	C224.600647,179.953171 225.177399,182.199661 225.321701,184.370605 
	C227.851593,184.188110 230.504288,184.406418 232.868179,183.682129 
	C234.442780,183.199707 235.847076,181.552307 236.912399,180.117935 
	C242.823807,172.158646 244.966354,162.900589 246.321777,153.180069 
	C241.443008,151.809128 237.008682,150.443649 232.495544,149.428711 
	C231.847809,149.283035 230.819748,150.828629 229.891968,152.435547 
M353.961121,167.846649 
	C354.635590,171.551453 355.310089,175.256271 355.980103,178.936584 
	C367.628479,177.728271 366.841217,163.506332 360.070404,154.953857 
	C356.524475,155.488525 352.856659,156.041565 349.132996,156.603043 
	C350.834625,160.435440 352.304474,163.745819 353.961121,167.846649 
z"/>
<path fill="#041D67" opacity="1.000000" stroke="none" 
	d="
M177.395599,93.801376 
	C158.529633,89.014763 146.351273,77.582802 142.385529,58.959812 
	C138.597412,41.170956 144.356522,25.966698 158.633118,14.555984 
	C174.575943,1.813518 197.140503,1.747274 213.387100,13.915569 
	C229.755661,26.175217 235.756348,47.714146 228.076752,66.642738 
	C220.425873,85.500549 201.277985,96.662407 180.792480,94.208672 
	C179.799820,94.089775 178.804489,93.993149 177.395599,93.801376 
M163.657043,62.731339 
	C173.511246,74.706749 188.202820,78.163643 201.130951,71.548859 
	C213.455978,65.242653 220.000351,51.052147 216.405960,37.949680 
	C213.111725,25.941380 205.215759,18.324091 193.021164,16.137087 
	C180.444199,13.881505 169.872528,18.156713 162.796494,28.949934 
	C155.620407,39.895782 156.117065,51.175346 163.657043,62.731339 
z"/>
<path fill="#051D67" opacity="1.000000" stroke="none" 
	d="
M443.126221,355.063019 
	C443.125946,376.015778 443.015778,396.477875 443.219696,416.936859 
	C443.259583,420.937256 441.720062,423.086731 438.311768,424.552643 
	C430.104889,428.082397 421.656403,429.186646 412.994202,426.804810 
	C405.176208,424.655090 399.376984,419.866180 396.456909,412.186462 
	C392.837799,402.668274 392.605194,393.002197 396.513458,383.496979 
	C402.724792,368.390594 415.485352,363.199890 433.024078,368.829285 
	C433.024078,362.776581 433.292633,356.857605 432.933838,350.976898 
	C432.675598,346.744354 434.479370,346.079132 438.173035,345.978851 
	C442.167755,345.870331 443.716675,347.143982 443.149780,351.081512 
	C442.985535,352.222260 443.125580,353.406799 443.126221,355.063019 
M432.986816,416.823608 
	C433.000702,405.677032 433.018127,394.530426 433.027252,383.383850 
	C433.033508,375.707245 431.075134,373.562347 423.262177,373.253693 
	C416.783478,372.997772 411.666351,375.684326 408.103119,381.151642 
	C402.307373,390.044373 402.822449,405.775299 409.160339,414.278809 
	C414.900146,421.979950 426.288269,423.617310 432.986816,416.823608 
z"/>
<path fill="#08206A" opacity="1.000000" stroke="none" 
	d="
M300.452515,400.607117 
	C300.981873,394.565125 300.880127,388.797150 302.270813,383.414764 
	C305.180298,372.153900 313.977509,366.039642 325.950165,365.957397 
	C338.169098,365.873413 346.553833,371.655090 350.093964,382.838684 
	C352.924408,391.780273 352.940918,400.884491 350.500183,409.873322 
	C347.089111,422.435699 337.330597,428.889221 323.757385,427.971436 
	C311.575836,427.147766 303.087372,418.946442 301.063232,406.010468 
	C300.806458,404.369568 300.682739,402.707855 300.452515,400.607117 
M340.005890,383.867859 
	C337.056793,375.169983 332.964264,372.196350 324.708344,372.752625 
	C317.746094,373.221741 312.919586,377.415802 312.187500,385.876556 
	C311.480652,394.045227 311.613770,402.480743 312.866394,410.568512 
	C314.048248,418.199432 318.998169,421.241333 326.333923,421.217560 
	C333.517731,421.194275 338.743988,417.862213 339.704651,410.395111 
	C340.791840,401.945099 340.085052,393.264221 340.005890,383.867859 
z"/>
<path fill="#0F276E" opacity="1.000000" stroke="none" 
	d="
M291.666382,418.810303 
	C291.760864,423.093689 292.585327,426.974701 286.221375,426.450409 
	C282.345795,426.131104 281.104279,425.199432 281.168365,421.278046 
	C281.369629,408.960907 281.177948,396.637756 281.196350,384.317017 
	C281.203552,379.475342 280.017090,375.159302 275.058014,373.400360 
	C269.029388,371.262054 262.862732,371.307922 257.377747,374.997955 
	C256.265350,375.746338 255.898865,378.208710 255.883881,379.887115 
	C255.766434,393.039825 255.818939,406.194000 255.818069,419.347748 
	C255.817596,426.431122 255.816620,426.435669 248.768570,426.265320 
	C247.949005,426.245544 247.131454,426.142365 245.776199,426.035553 
	C245.626160,424.421600 245.353912,422.835052 245.350525,421.247955 
	C245.318558,406.262726 245.438812,391.276184 245.263962,376.292938 
	C245.215637,372.151733 246.636581,369.823730 250.643417,368.590271 
	C259.064056,365.998047 267.620422,365.056458 276.274628,366.512939 
	C287.620422,368.422424 291.612823,373.376434 291.657410,384.870209 
	C291.700684,396.025726 291.666534,407.181549 291.666382,418.810303 
z"/>
<path fill="#082069" opacity="1.000000" stroke="none" 
	d="
M200.837021,423.964905 
	C181.929932,434.303253 162.950851,424.962494 161.053253,404.059814 
	C160.366165,396.491455 161.173386,388.385803 163.228516,381.067230 
	C166.089096,370.880371 174.970078,365.915710 186.484329,365.954956 
	C197.576782,365.992767 205.814484,371.221558 209.405960,381.077423 
	C213.236145,391.588318 213.450378,402.395630 209.296844,412.769409 
	C207.654755,416.870575 203.935181,420.139923 200.837021,423.964905 
M171.036636,392.792480 
	C171.608017,398.889801 171.570251,405.124451 172.906387,411.049316 
	C174.542618,418.304901 179.112320,421.243622 186.285156,421.224182 
	C193.248932,421.205322 197.923157,417.892822 199.755722,410.928925 
	C202.167099,401.765442 202.164001,392.449249 199.823334,383.266449 
	C198.028717,376.225830 193.431412,372.785004 186.560272,372.679657 
	C179.223709,372.567169 174.875015,375.718140 172.727539,383.074097 
	C171.895233,385.925079 171.612198,388.936401 171.036636,392.792480 
z"/>
<path fill="#082069" opacity="1.000000" stroke="none" 
	d="
M91.984207,426.172119 
	C71.769989,432.264343 56.820423,421.833405 56.111187,401.155121 
	C55.914268,395.413757 56.297485,389.444244 57.689739,383.899628 
	C60.689434,371.953461 69.420486,365.886932 81.967148,365.956329 
	C94.382446,366.025024 102.843445,372.418976 106.029182,384.313385 
	C108.312637,392.838959 108.284317,401.430450 105.967819,409.938141 
	C103.945892,417.364014 99.748299,423.089020 91.984207,426.172119 
M84.961670,421.035706 
	C90.468819,419.972473 93.652512,416.457153 95.120911,411.244049 
	C97.801476,401.727539 97.886780,392.156219 95.076393,382.681335 
	C92.978859,375.609711 88.598923,372.580261 81.452599,372.673126 
	C74.539909,372.762939 69.296944,376.107788 68.327179,383.227173 
	C67.197762,391.518524 66.775085,400.165405 67.833565,408.429016 
	C69.118477,418.460327 73.913773,421.409119 84.961670,421.035706 
z"/>
<path fill="#082069" opacity="1.000000" stroke="none" 
	d="
M125.576385,411.482910 
	C119.992012,396.898865 114.584587,382.661865 109.184982,368.445404 
	C116.654655,365.323059 119.653267,366.529419 122.021645,373.150879 
	C126.475578,385.603058 130.953598,398.046600 135.936188,411.927338 
	C137.611450,407.108826 138.839005,403.614563 140.041672,400.111725 
	C143.169739,391.001160 146.589218,381.975403 149.293579,372.740448 
	C150.884811,367.306580 153.765869,365.964783 159.345139,367.851624 
	C159.043793,369.137604 158.862396,370.539642 158.389389,371.835236 
	C152.181625,388.838531 145.887466,405.810486 139.741913,422.836121 
	C138.800156,425.445129 137.351685,427.002563 134.685303,426.145599 
	C132.958344,425.590546 130.873795,424.434662 130.106445,422.950012 
	C128.288605,419.432892 127.160355,415.559357 125.576385,411.482910 
z"/>
<path fill="#08206A" opacity="1.000000" stroke="none" 
	d="
M511.820435,420.673645 
	C503.431732,428.991272 488.751251,430.481659 479.315063,424.272949 
	C476.741730,422.579773 474.489227,420.292450 476.415619,417.342987 
	C478.302429,414.454193 481.420959,415.263153 483.861023,417.194489 
	C487.835938,420.340668 492.123352,422.065918 497.273926,421.082458 
	C501.825623,420.213348 504.853638,417.610718 505.814880,413.102936 
	C506.746338,408.734711 504.401337,405.718384 500.804840,403.689301 
	C498.212067,402.226562 495.375488,401.202301 492.735260,399.815674 
	C489.656311,398.198547 486.388733,396.756409 483.699615,394.614807 
	C474.752716,387.489349 476.172760,374.046875 486.343170,368.839111 
	C493.611298,365.117493 501.152069,365.449188 508.580566,368.301056 
	C511.253693,369.327332 514.044617,371.202209 512.399414,374.670441 
	C510.608368,378.446106 507.621704,377.286346 504.821991,375.575256 
	C503.693970,374.885895 502.536407,374.202057 501.311615,373.721222 
	C495.834747,371.570862 490.138397,373.449615 487.981201,378.045166 
	C485.842743,382.600800 487.561920,386.563141 493.364136,389.711945 
	C497.445557,391.926849 501.815125,393.620941 505.846619,395.915527 
	C515.828186,401.596619 517.999329,410.488251 511.820435,420.673645 
z"/>
<path fill="#061E68" opacity="1.000000" stroke="none" 
	d="
M527.081421,345.918091 
	C529.332031,345.917755 531.129761,345.917755 533.175049,345.917755 
	C533.175049,372.822601 533.175049,399.262848 533.175049,425.943909 
	C529.859070,425.943909 526.783142,425.943909 523.463013,425.943909 
	C523.343445,424.545837 523.164124,423.421143 523.163330,422.296356 
	C523.146606,398.302399 523.162659,374.308441 523.130371,350.314545 
	C523.127014,347.816193 523.017212,345.443420 527.081421,345.918091 
z"/>
<path fill="#041C67" opacity="1.000000" stroke="none" 
	d="
M369.973877,382.139130 
	C369.973877,396.899292 369.973877,411.179260 369.973877,425.844360 
	C366.491791,425.844360 363.445618,425.844360 360.084564,425.844360 
	C359.951050,424.529175 359.710327,423.250702 359.708252,421.971802 
	C359.682770,406.325195 359.804504,390.677185 359.618896,375.032776 
	C359.568451,370.784302 361.057678,368.080750 365.234375,367.779785 
	C372.445251,367.260284 379.687683,367.097229 386.919373,367.021454 
	C388.278473,367.007202 390.256042,367.734711 390.873779,368.764435 
	C391.826508,370.352539 392.800964,373.185974 392.038086,374.237396 
	C391.003754,375.663055 388.379669,376.100220 386.346375,376.542908 
	C385.672913,376.689545 384.648132,375.622620 383.903564,374.973419 
	C380.664093,372.148865 376.925354,370.709473 372.866302,372.397217 
	C368.589050,374.175751 370.301117,378.353027 369.973877,382.139130 
z"/>
<path fill="#082069" opacity="1.000000" stroke="none" 
	d="
M560.237915,380.224060 
	C555.536133,385.379272 551.046814,390.246399 546.256165,395.440247 
	C553.527466,405.033722 561.082397,415.001404 568.861938,425.265503 
	C559.277039,427.631073 557.183044,426.914764 552.534729,420.280670 
	C546.714905,411.974609 540.887878,403.673584 536.407227,397.285553 
	C540.579407,392.067291 544.536133,387.397095 548.161194,382.482239 
	C550.416260,379.424744 552.418457,376.119354 554.093140,372.708679 
	C557.052734,366.681061 559.807556,365.555847 567.381958,368.574982 
	C565.023071,372.441193 562.736755,376.188568 560.237915,380.224060 
z"/>
<path fill="#041D67" opacity="1.000000" stroke="none" 
	d="
M457.471741,367.682373 
	C458.649048,367.309540 459.472351,367.181488 460.297668,367.166992 
	C466.934845,367.050171 466.938049,367.056763 466.938721,373.524811 
	C466.940491,390.783051 466.939331,408.041290 466.939331,425.767303 
	C463.599640,425.767303 460.556396,425.767303 457.183807,425.767303 
	C457.052887,425.092865 456.717529,424.165771 456.715912,423.238068 
	C456.685211,405.627319 456.688293,388.016571 456.712372,370.405823 
	C456.713470,369.596985 456.977234,368.788483 457.471741,367.682373 
z"/>
<path fill="#152C71" opacity="1.000000" stroke="none" 
	d="
M572.502502,351.718323 
	C564.299011,345.796967 561.444092,338.062408 564.191589,329.880554 
	C566.713257,322.371185 574.231506,317.231903 582.269836,317.522644 
	C590.616150,317.824463 597.608826,323.370026 599.533936,331.555573 
	C601.197571,338.629211 599.254883,344.854218 593.752930,349.564423 
	C587.428833,354.978516 580.293518,355.501404 572.502502,351.718323 
M593.431519,326.192139 
	C587.636414,320.614349 580.999023,319.201843 574.869568,322.242126 
	C569.227966,325.040375 565.803223,331.291107 566.554626,337.418274 
	C567.342590,343.843597 571.626343,348.778168 577.902649,350.490356 
	C583.690491,352.069305 590.060059,349.817169 593.830383,344.858612 
	C597.924622,339.474030 597.943176,333.647949 593.431519,326.192139 
z"/>
<path fill="#08206A" opacity="1.000000" stroke="none" 
	d="
M455.687500,351.065796 
	C457.147430,346.286133 460.054688,344.269165 463.580994,345.423920 
	C467.113190,346.580597 468.752960,349.183594 467.737122,352.748230 
	C466.638184,356.604492 463.379364,358.070831 459.931488,356.734802 
	C458.099609,356.024933 457.063019,353.262726 455.687500,351.065796 
z"/>
<path fill="#FCFCFD" opacity="1.000000" stroke="none" 
	d="
M289.406799,215.190582 
	C283.105042,216.461334 277.123993,217.250046 271.446442,219.015030 
	C258.149139,223.148697 249.812485,232.168091 246.686951,245.849777 
	C246.254410,247.743195 245.733643,249.616486 245.225067,251.611465 
	C244.392410,251.347321 243.796143,251.342789 243.517136,251.042969 
	C233.828247,240.632584 221.304688,234.278168 209.479935,226.860718 
	C204.044479,223.451157 198.930603,219.232300 194.488968,214.596619 
	C185.144089,204.843506 182.923569,193.254135 187.425430,180.425186 
	C192.059784,167.218689 199.820877,155.818710 208.199387,144.827209 
	C209.169128,143.555038 212.003571,142.990311 213.815262,143.241028 
	C216.543594,143.618576 219.132309,145.005005 222.677582,146.287003 
	C221.018631,154.965744 219.407242,163.583206 217.703537,172.182358 
	C217.252625,174.458206 216.481522,176.668762 215.918777,178.924606 
	C213.249466,189.625031 216.430099,193.478531 227.411850,193.222992 
	C236.575577,193.009766 243.155518,188.429596 246.737503,180.508118 
	C250.327744,172.568390 252.646118,164.053528 255.723267,155.212326 
	C257.368225,155.457687 260.077057,155.462616 262.427673,156.382675 
	C263.582916,156.834869 264.642731,158.930893 264.774017,160.371567 
	C265.618958,169.643280 265.881378,178.976273 266.965851,188.215118 
	C267.731720,194.740005 271.432373,198.634476 277.689056,198.743439 
	C290.618652,198.968567 303.657532,199.207382 316.474152,197.812180 
	C328.636078,196.488266 332.986877,190.453888 333.008606,178.109940 
	C333.019623,171.856995 332.187469,165.602585 331.732727,159.296066 
	C340.528442,156.812851 342.135315,157.325409 345.374725,165.815292 
	C346.943542,169.926926 347.619812,174.464355 348.128906,178.874954 
	C348.872406,185.316269 351.915955,187.701584 358.221008,186.110962 
	C368.431396,183.535141 373.919434,174.488663 371.563049,163.880386 
	C370.886169,160.833084 369.800476,157.876617 368.900635,154.873291 
	C379.752197,152.351410 387.429352,157.549835 387.858704,168.388443 
	C388.554199,185.944702 386.587036,203.285446 381.851074,220.249847 
	C381.320892,222.149002 380.389465,223.957321 379.484253,225.725952 
	C377.846985,228.924835 375.358856,229.967331 372.056091,228.203583 
	C346.161530,214.375168 318.202789,213.578125 289.406799,215.190582 
z"/>
<path fill="#FCFCFD" opacity="1.000000" stroke="none" 
	d="
M166.094666,175.932404 
	C161.156464,165.510040 153.359863,160.377441 142.035385,161.285583 
	C137.260666,161.668503 134.551956,158.745514 132.588852,155.237671 
	C131.866669,153.947189 132.286102,151.282028 133.202484,149.937561 
	C137.193253,144.082550 141.057144,138.594101 142.897842,131.235107 
	C144.182693,126.098389 149.786835,121.690033 154.253616,117.886330 
	C155.884888,116.497215 160.270767,116.857681 162.597610,118.022629 
	C173.867752,123.665085 184.868378,129.846359 195.956711,135.851105 
	C198.626083,137.296677 199.233917,139.447433 197.886246,142.124374 
	C197.215500,143.456741 196.510025,144.789047 195.663208,146.012695 
	C186.346130,159.475891 178.132553,173.457825 174.859604,191.210938 
	C171.582550,185.518082 168.918076,180.889374 166.094666,175.932404 
M155.322693,130.679733 
	C154.364212,130.910217 153.325058,130.977280 152.462845,131.402802 
	C150.170654,132.534058 147.015030,133.370804 148.804642,137.010788 
	C150.352295,140.158600 153.243301,140.668533 155.873154,138.831314 
	C158.524567,136.979019 160.644836,134.366440 162.997833,132.086975 
	C162.723709,131.552139 162.449585,131.017288 162.175461,130.482452 
	C160.157043,130.482452 158.138626,130.482452 155.322693,130.679733 
z"/>
<path fill="#FCFCFD" opacity="1.000000" stroke="none" 
	d="
M323.281525,183.924713 
	C320.904083,189.763916 315.653046,190.441971 311.074738,190.696487 
	C300.985443,191.257324 290.843201,190.985825 280.725098,190.857239 
	C275.698944,190.793365 274.515564,186.900711 274.153137,182.947540 
	C273.411804,174.860916 272.981506,166.745758 272.420319,158.601822 
	C289.337769,159.187973 305.840027,159.759735 323.014648,160.354797 
	C325.129486,167.602921 325.730591,175.514648 323.281525,183.924713 
z"/>
<path fill="#F7F8FA" opacity="1.000000" stroke="none" 
	d="
M404.007446,267.747437 
	C403.595032,269.494781 403.203308,270.808594 402.426025,273.415649 
	C393.748993,248.091736 393.905121,223.895187 399.564178,197.780624 
	C401.116180,200.881882 402.651276,202.692917 402.899292,204.665756 
	C403.891815,212.561081 405.050842,220.503326 405.097198,228.434357 
	C405.172943,241.391663 404.427307,254.353760 404.007446,267.747437 
z"/>
<path fill="#F9F9FB" opacity="1.000000" stroke="none" 
	d="
M229.929840,152.013535 
	C230.819748,150.828629 231.847809,149.283035 232.495544,149.428711 
	C237.008682,150.443649 241.443008,151.809128 246.321777,153.180069 
	C244.966354,162.900589 242.823807,172.158646 236.912399,180.117935 
	C235.847076,181.552307 234.442780,183.199707 232.868179,183.682129 
	C230.504288,184.406418 227.851593,184.188110 225.321701,184.370605 
	C225.177399,182.199661 224.600647,179.953171 224.964447,177.871002 
	C226.450623,169.365204 228.224243,160.909622 229.929840,152.013535 
z"/>
<path fill="#F4F5F8" opacity="1.000000" stroke="none" 
	d="
M353.867706,167.451431 
	C352.304474,163.745819 350.834625,160.435440 349.132996,156.603043 
	C352.856659,156.041565 356.524475,155.488525 360.070404,154.953857 
	C366.841217,163.506332 367.628479,177.728271 355.980103,178.936584 
	C355.310089,175.256271 354.635590,171.551453 353.867706,167.451431 
z"/>
<path fill="#FDFDFE" opacity="1.000000" stroke="none" 
	d="
M163.430511,62.446739 
	C156.117065,51.175346 155.620407,39.895782 162.796494,28.949934 
	C169.872528,18.156713 180.444199,13.881505 193.021164,16.137087 
	C205.215759,18.324091 213.111725,25.941380 216.405960,37.949680 
	C220.000351,51.052147 213.455978,65.242653 201.130951,71.548859 
	C188.202820,78.163643 173.511246,74.706749 163.430511,62.446739 
z"/>
<path fill="#FCFCFD" opacity="1.000000" stroke="none" 
	d="
M432.904663,417.252258 
	C426.288269,423.617310 414.900146,421.979950 409.160339,414.278809 
	C402.822449,405.775299 402.307373,390.044373 408.103119,381.151642 
	C411.666351,375.684326 416.783478,372.997772 423.262177,373.253693 
	C431.075134,373.562347 433.033508,375.707245 433.027252,383.383850 
	C433.018127,394.530426 433.000702,405.677032 432.904663,417.252258 
z"/>
<path fill="#FDFDFE" opacity="1.000000" stroke="none" 
	d="
M340.082123,384.275818 
	C340.085052,393.264221 340.791840,401.945099 339.704651,410.395111 
	C338.743988,417.862213 333.517731,421.194275 326.333923,421.217560 
	C318.998169,421.241333 314.048248,418.199432 312.866394,410.568512 
	C311.613770,402.480743 311.480652,394.045227 312.187500,385.876556 
	C312.919586,377.415802 317.746094,373.221741 324.708344,372.752625 
	C332.964264,372.196350 337.056793,375.169983 340.082123,384.275818 
z"/>
<path fill="#FCFCFD" opacity="1.000000" stroke="none" 
	d="
M171.057800,392.333588 
	C171.612198,388.936401 171.895233,385.925079 172.727539,383.074097 
	C174.875015,375.718140 179.223709,372.567169 186.560272,372.679657 
	C193.431412,372.785004 198.028717,376.225830 199.823334,383.266449 
	C202.164001,392.449249 202.167099,401.765442 199.755722,410.928925 
	C197.923157,417.892822 193.248932,421.205322 186.285156,421.224182 
	C179.112320,421.243622 174.542618,418.304901 172.906387,411.049316 
	C171.570251,405.124451 171.608017,398.889801 171.057800,392.333588 
z"/>
<path fill="#FCFCFD" opacity="1.000000" stroke="none" 
	d="
M84.537186,421.075867 
	C73.913773,421.409119 69.118477,418.460327 67.833565,408.429016 
	C66.775085,400.165405 67.197762,391.518524 68.327179,383.227173 
	C69.296944,376.107788 74.539909,372.762939 81.452599,372.673126 
	C88.598923,372.580261 92.978859,375.609711 95.076393,382.681335 
	C97.886780,392.156219 97.801476,401.727539 95.120911,411.244049 
	C93.652512,416.457153 90.468819,419.972473 84.537186,421.075867 
z"/>
<path fill="#F4F5F8" opacity="1.000000" stroke="none" 
	d="
M593.659790,326.490173 
	C597.943176,333.647949 597.924622,339.474030 593.830383,344.858612 
	C590.060059,349.817169 583.690491,352.069305 577.902649,350.490356 
	C571.626343,348.778168 567.342590,343.843597 566.554626,337.418274 
	C565.803223,331.291107 569.227966,325.040375 574.869568,322.242126 
	C580.999023,319.201843 587.636414,320.614349 593.659790,326.490173 
M578.450256,325.996094 
	C577.012512,326.074585 575.574707,326.153107 573.885498,326.245361 
	C573.885498,332.186432 573.817444,337.812378 573.963928,343.432739 
	C573.984192,344.212769 575.062866,344.965210 575.651550,345.730408 
	C576.110779,345.005219 576.892517,344.311218 576.966309,343.548706 
	C577.155334,341.597168 577.029297,339.615112 577.029297,337.782501 
	C584.558167,335.421967 583.251465,346.541016 590.420532,345.579865 
	C588.365417,342.463074 586.607666,339.797363 584.849976,337.131622 
	C585.308838,337.230743 585.767639,337.329834 586.226501,337.428925 
	C587.089539,334.879669 589.295715,331.684601 588.462280,329.951019 
	C587.504639,327.959259 583.877258,327.214752 581.358093,326.038910 
	C580.811646,325.783844 580.046082,325.998077 578.450256,325.996094 
z"/>
<path fill="#152C71" opacity="1.000000" stroke="none" 
	d="
M155.721451,130.581085 
	C158.138626,130.482452 160.157043,130.482452 162.175461,130.482452 
	C162.449585,131.017288 162.723709,131.552139 162.997833,132.086975 
	C160.644836,134.366440 158.524567,136.979019 155.873154,138.831314 
	C153.243301,140.668533 150.352295,140.158600 148.804642,137.010788 
	C147.015030,133.370804 150.170654,132.534058 152.462845,131.402802 
	C153.325058,130.977280 154.364212,130.910217 155.721451,130.581085 
z"/>
<path fill="#0D256D" opacity="1.000000" stroke="none" 
	d="
M578.915894,325.996155 
	C580.046082,325.998077 580.811646,325.783844 581.358093,326.038910 
	C583.877258,327.214752 587.504639,327.959259 588.462280,329.951019 
	C589.295715,331.684601 587.089539,334.879669 586.226501,337.428925 
	C585.767639,337.329834 585.308838,337.230743 584.849976,337.131622 
	C586.607666,339.797363 588.365417,342.463074 590.420532,345.579865 
	C583.251465,346.541016 584.558167,335.421967 577.029297,337.782501 
	C577.029297,339.615112 577.155334,341.597168 576.966309,343.548706 
	C576.892517,344.311218 576.110779,345.005219 575.651550,345.730408 
	C575.062866,344.965210 573.984192,344.212769 573.963928,343.432739 
	C573.817444,337.812378 573.885498,332.186432 573.885498,326.245361 
	C575.574707,326.153107 577.012512,326.074585 578.915894,325.996155 
M583.683960,329.095764 
	C581.601562,329.095764 579.519165,329.095764 577.284668,329.095764 
	C577.284668,330.939453 577.284668,332.643829 577.284668,334.315277 
	C584.795349,335.161041 586.354370,334.048401 583.683960,329.095764 
z"/>
<path fill="#E7EAF0" opacity="1.000000" stroke="none" 
	d="
M584.045593,329.276123 
	C586.354370,334.048401 584.795349,335.161041 577.284668,334.315277 
	C577.284668,332.643829 577.284668,330.939453 577.284668,329.095764 
	C579.519165,329.095764 581.601562,329.095764 584.045593,329.276123 
z"/>
</svg>